<svg width="24" height="25" viewBox="0 0 24 25" fill="none" xmlns="http://www.w3.org/2000/svg">
<path d="M17 7.5H7C6.73478 7.5 6.48043 7.60536 6.29289 7.79289C6.10536 7.98043 6 8.23478 6 8.5C6 8.76522 6.10536 9.01957 6.29289 9.20711C6.48043 9.39464 6.73478 9.5 7 9.5H17C17.2652 9.5 17.5196 9.39464 17.7071 9.20711C17.8946 9.01957 18 8.76522 18 8.5C18 8.23478 17.8946 7.98043 17.7071 7.79289C17.5196 7.60536 17.2652 7.5 17 7.5ZM17 11.5H7C6.73478 11.5 6.48043 11.6054 6.29289 11.7929C6.10536 11.9804 6 12.2348 6 12.5C6 12.7652 6.10536 13.0196 6.29289 13.2071C6.48043 13.3946 6.73478 13.5 7 13.5H17C17.2652 13.5 17.5196 13.3946 17.7071 13.2071C17.8946 13.0196 18 12.7652 18 12.5C18 12.2348 17.8946 11.9804 17.7071 11.7929C17.5196 11.6054 17.2652 11.5 17 11.5ZM19 2.5H5C4.20435 2.5 3.44129 2.81607 2.87868 3.37868C2.31607 3.94129 2 4.70435 2 5.5V15.5C2 16.2956 2.31607 17.0587 2.87868 17.6213C3.44129 18.1839 4.20435 18.5 5 18.5H16.59L20.29 22.21C20.3834 22.3027 20.4943 22.376 20.6161 22.4258C20.7379 22.4755 20.8684 22.5008 21 22.5C21.1312 22.5034 21.2613 22.476 21.38 22.42C21.5626 22.345 21.7189 22.2176 21.8293 22.0539C21.9396 21.8901 21.999 21.6974 22 21.5V5.5C22 4.70435 21.6839 3.94129 21.1213 3.37868C20.5587 2.81607 19.7956 2.5 19 2.5ZM20 19.09L17.71 16.79C17.6166 16.6973 17.5057 16.624 17.3839 16.5742C17.2621 16.5245 17.1316 16.4992 17 16.5H5C4.73478 16.5 4.48043 16.3946 4.29289 16.2071C4.10536 16.0196 4 15.7652 4 15.5V5.5C4 5.23478 4.10536 4.98043 4.29289 4.79289C4.48043 4.60536 4.73478 4.5 5 4.5H19C19.2652 4.5 19.5196 4.60536 19.7071 4.79289C19.8946 4.98043 20 5.23478 20 5.5V19.09Z" fill="#6B6B67"/>
</svg>
