<svg width="24" height="25" viewBox="0 0 24 25" fill="none" xmlns="http://www.w3.org/2000/svg">
<path d="M20.16 5.50004C19.0999 4.43725 17.6948 3.78858 16.1983 3.67121C14.7018 3.55384 13.2127 3.97551 12 4.86004C10.7276 3.91368 9.14396 3.48455 7.56789 3.65908C5.99182 3.83361 4.54041 4.59882 3.50594 5.80063C2.47148 7.00244 1.93079 8.55156 1.99277 10.1361C2.05475 11.7206 2.71479 13.2227 3.83997 14.34L10.05 20.56C10.57 21.0718 11.2704 21.3587 12 21.3587C12.7296 21.3587 13.43 21.0718 13.95 20.56L20.16 14.34C21.3275 13.1653 21.9829 11.5763 21.9829 9.92004C21.9829 8.26377 21.3275 6.67478 20.16 5.50004ZM18.75 12.96L12.54 19.17C12.4693 19.2414 12.3852 19.298 12.2925 19.3367C12.1998 19.3753 12.1004 19.3953 12 19.3953C11.8995 19.3953 11.8001 19.3753 11.7074 19.3367C11.6147 19.298 11.5306 19.2414 11.46 19.17L5.24997 12.93C4.46573 12.1284 4.02658 11.0515 4.02658 9.93004C4.02658 8.80858 4.46573 7.7317 5.24997 6.93004C6.04913 6.14103 7.12694 5.69861 8.24997 5.69861C9.373 5.69861 10.4508 6.14103 11.25 6.93004C11.3429 7.02377 11.4535 7.09817 11.5754 7.14893C11.6973 7.1997 11.828 7.22584 11.96 7.22584C12.092 7.22584 12.2227 7.1997 12.3445 7.14893C12.4664 7.09817 12.577 7.02377 12.67 6.93004C13.4691 6.14103 14.5469 5.69861 15.67 5.69861C16.793 5.69861 17.8708 6.14103 18.67 6.93004C19.465 7.72119 19.9186 8.79223 19.9335 9.91373C19.9485 11.0352 19.5236 12.118 18.75 12.93V12.96Z" fill="#6B6B67"/>
</svg>
