<svg width="127" height="20" viewBox="0 0 127 20" fill="none" xmlns="http://www.w3.org/2000/svg">
<path d="M30.7146 12.1449C30.7146 14.5928 29.1895 16.3169 26.914 16.3169C24.6385 16.3169 23.1134 14.5928 23.1134 12.1449C23.1134 9.69694 24.6385 7.97283 26.914 7.97283C29.1895 7.97283 30.7146 9.7254 30.7146 12.1449ZM35.0182 12.1449C35.0182 7.554 31.4082 4.21557 26.914 4.21557C22.4198 4.21557 18.8098 7.554 18.8098 12.1449C18.8098 16.7357 22.4198 20.0741 26.914 20.0741C31.4082 20.0741 35.0182 16.7357 35.0182 12.1449Z" fill="#0C0C0B"/>
<path d="M30.7146 12.1449C30.7146 14.5928 29.1895 16.3169 26.914 16.3169C24.6385 16.3169 23.1134 14.5928 23.1134 12.1449C23.1134 9.69694 24.6385 7.97283 26.914 7.97283C29.1895 7.97283 30.7146 9.7254 30.7146 12.1449ZM35.0182 12.1449C35.0182 7.554 31.4082 4.21557 26.914 4.21557C22.4198 4.21557 18.8098 7.554 18.8098 12.1449C18.8098 16.7357 22.4198 20.0741 26.914 20.0741C31.4082 20.0741 35.0182 16.7357 35.0182 12.1449Z" fill="black" fill-opacity="0.2"/>
<path d="M43.8305 20.0741C47.485 20.0741 50.026 18.1553 50.026 15.3462C50.026 13.1754 48.574 11.6184 45.8657 10.8948L43.0474 10.1427C42.5457 10.0045 41.4852 9.72399 41.4852 8.80931C41.4852 8.02878 42.2112 7.55721 43.4389 7.55721C45.0867 7.55721 46.396 8.33774 46.8977 9.64269L50.022 8.19546C49.0431 5.71971 46.5632 4.21557 43.4348 4.21557C39.8619 4.21557 37.435 6.13437 37.435 8.94346C37.435 11.0289 38.7729 12.6428 41.5382 13.3665L44.2179 14.0616C44.7482 14.1998 45.9759 14.5047 45.9759 15.5089C45.9759 16.3422 45.1397 16.8707 43.8264 16.8707C42.097 16.8707 40.7266 15.952 39.919 14.2568L36.8192 15.704C37.7695 18.4562 40.5022 20.0701 43.8264 20.0701" fill="#0C0C0B"/>
<path d="M43.8305 20.0741C47.485 20.0741 50.026 18.1553 50.026 15.3462C50.026 13.1754 48.574 11.6184 45.8657 10.8948L43.0474 10.1427C42.5457 10.0045 41.4852 9.72399 41.4852 8.80931C41.4852 8.02878 42.2112 7.55721 43.4389 7.55721C45.0867 7.55721 46.396 8.33774 46.8977 9.64269L50.022 8.19546C49.0431 5.71971 46.5632 4.21557 43.4348 4.21557C39.8619 4.21557 37.435 6.13437 37.435 8.94346C37.435 11.0289 38.7729 12.6428 41.5382 13.3665L44.2179 14.0616C44.7482 14.1998 45.9759 14.5047 45.9759 15.5089C45.9759 16.3422 45.1397 16.8707 43.8264 16.8707C42.097 16.8707 40.7266 15.952 39.919 14.2568L36.8192 15.704C37.7695 18.4562 40.5022 20.0701 43.8264 20.0701" fill="black" fill-opacity="0.2"/>
<path d="M52.47 2.10857C52.47 3.22583 53.4095 4.16839 54.5475 4.16839C55.6856 4.16839 56.6251 3.22583 56.6251 2.10857C56.6251 0.991312 55.7139 0 54.5475 0C53.3812 0 52.47 0.942559 52.47 2.10857Z" fill="#0C0C0B"/>
<path d="M52.47 2.10857C52.47 3.22583 53.4095 4.16839 54.5475 4.16839C55.6856 4.16839 56.6251 3.22583 56.6251 2.10857C56.6251 0.991312 55.7139 0 54.5475 0C53.3812 0 52.47 0.942559 52.47 2.10857Z" fill="black" fill-opacity="0.2"/>
<path d="M56.6251 6.2199H52.47V19.7367H56.6251V6.2199Z" fill="#0C0C0B"/>
<path d="M56.6251 6.2199H52.47V19.7367H56.6251V6.2199Z" fill="black" fill-opacity="0.2"/>
<path d="M67.4736 20.0701C68.1155 20.0701 68.8719 20.0132 69.432 19.9319V16.4867C69.0395 16.5436 68.7043 16.572 68.4549 16.572C66.6927 16.572 65.8545 15.8204 65.8545 14.2644V8.17429H69.4361V4.55843H65.8545V0H61.6597V2.22233C61.6597 3.77837 60.7929 4.55843 59.227 4.55843H59.0307V8.17429H61.6597V14.2644C61.6597 17.8234 63.7857 20.0741 67.4777 20.0741" fill="#0C0C0B"/>
<path d="M67.4736 20.0701C68.1155 20.0701 68.8719 20.0132 69.432 19.9319V16.4867C69.0395 16.5436 68.7043 16.572 68.4549 16.572C66.6927 16.572 65.8545 15.8204 65.8545 14.2644V8.17429H69.4361V4.55843H65.8545V0H61.6597V2.22233C61.6597 3.77837 60.7929 4.55843 59.227 4.55843H59.0307V8.17429H61.6597V14.2644C61.6597 17.8234 63.7857 20.0741 67.4777 20.0741" fill="black" fill-opacity="0.2"/>
<path d="M71.8971 2.10857C71.8971 3.22583 72.8367 4.16839 73.9747 4.16839C75.1127 4.16839 76.0523 3.22583 76.0523 2.10857C76.0523 0.991312 75.1411 0 73.9747 0C72.8083 0 71.8971 0.942559 71.8971 2.10857Z" fill="#0C0C0B"/>
<path d="M71.8971 2.10857C71.8971 3.22583 72.8367 4.16839 73.9747 4.16839C75.1127 4.16839 76.0523 3.22583 76.0523 2.10857C76.0523 0.991312 75.1411 0 73.9747 0C72.8083 0 71.8971 0.942559 71.8971 2.10857Z" fill="black" fill-opacity="0.2"/>
<path d="M76.0523 6.2199H71.8971V19.7367H76.0523V6.2199Z" fill="#0C0C0B"/>
<path d="M76.0523 6.2199H71.8971V19.7367H76.0523V6.2199Z" fill="black" fill-opacity="0.2"/>
<path d="M89.1153 4.61705L85.6446 14.1598L82.1779 4.61705H77.8405L83.8254 19.6727H87.4637L93.4486 4.61705H89.1153Z" fill="#0C0C0B"/>
<path d="M89.1153 4.61705L85.6446 14.1598L82.1779 4.61705H77.8405L83.8254 19.6727H87.4637L93.4486 4.61705H89.1153Z" fill="black" fill-opacity="0.2"/>
<path d="M104.291 10.254H98.01C98.4229 8.50145 99.6013 7.554 101.221 7.554C102.92 7.554 104.127 8.6397 104.291 10.254ZM108.653 11.7016C108.653 7.50114 105.418 4.21557 101.221 4.21557C97.0239 4.21557 93.6487 7.58246 93.6487 12.1164C93.6487 16.6503 96.7473 20.0741 101.493 20.0741C104.564 20.0741 107.033 18.5981 107.939 16.3738L104.648 14.7879C104.071 15.8167 103.001 16.4592 101.549 16.4592C99.5212 16.4592 98.1743 15.2352 97.9298 13.3159H108.464C108.6 12.8971 108.657 12.3156 108.657 11.7016" fill="#0C0C0B"/>
<path d="M104.291 10.254H98.01C98.4229 8.50145 99.6013 7.554 101.221 7.554C102.92 7.554 104.127 8.6397 104.291 10.254ZM108.653 11.7016C108.653 7.50114 105.418 4.21557 101.221 4.21557C97.0239 4.21557 93.6487 7.58246 93.6487 12.1164C93.6487 16.6503 96.7473 20.0741 101.493 20.0741C104.564 20.0741 107.033 18.5981 107.939 16.3738L104.648 14.7879C104.071 15.8167 103.001 16.4592 101.549 16.4592C99.5212 16.4592 98.1743 15.2352 97.9298 13.3159H108.464C108.6 12.8971 108.657 12.3156 108.657 11.7016" fill="black" fill-opacity="0.2"/>
<path d="M117.061 10.861V13.2489H126.066V10.861H123.015V0H120.564C120.295 1.38995 119.018 2.46877 117.061 2.49301V4.27085H120.193V10.861H117.061Z" fill="#0C0C0B"/>
<path d="M117.061 10.861V13.2489H126.066V10.861H123.015V0H120.564C120.295 1.38995 119.018 2.46877 117.061 2.49301V4.27085H120.193V10.861H117.061Z" fill="black" fill-opacity="0.2"/>
<path d="M13.5954 6.37802C13.5954 8.40279 11.8884 9.5974 9.52696 9.5974H6.45021L7.75488 3.71748H10.3967C12.6037 3.71748 13.5954 4.80275 13.5954 6.37802ZM18.0053 6.07026C18.0094 2.50666 15.335 0 11.3885 0H4.21479L0 19.6727H4.28795L5.67391 13.2784H9.55948C14.5302 13.246 18.0094 10.7718 18.0094 6.06621" fill="#0C0C0B"/>
<path d="M13.5954 6.37802C13.5954 8.40279 11.8884 9.5974 9.52696 9.5974H6.45021L7.75488 3.71748H10.3967C12.6037 3.71748 13.5954 4.80275 13.5954 6.37802ZM18.0053 6.07026C18.0094 2.50666 15.335 0 11.3885 0H4.21479L0 19.6727H4.28795L5.67391 13.2784H9.55948C14.5302 13.246 18.0094 10.7718 18.0094 6.06621" fill="black" fill-opacity="0.2"/>
<path d="M117.134 4.29446H108.718V6.59398H117.134V4.29446Z" fill="#0C0C0B"/>
<path d="M117.134 4.29446H108.718V6.59398H117.134V4.29446Z" fill="black" fill-opacity="0.2"/>
<path d="M114.072 9.66123V1.21883H111.78V9.66123H114.072Z" fill="#0C0C0B"/>
<path d="M114.072 9.66123V1.21883H111.78V9.66123H114.072Z" fill="black" fill-opacity="0.2"/>
</svg>
