<svg width="21" height="21" viewBox="0 0 21 21" fill="none" xmlns="http://www.w3.org/2000/svg">
<path d="M20.21 19.29L16.5 15.61C17.9401 13.8144 18.6375 11.5353 18.4488 9.24133C18.2601 6.94733 17.1997 4.81281 15.4855 3.27667C13.7714 1.74053 11.5338 0.919537 9.23295 0.982497C6.93207 1.04546 4.74275 1.98759 3.11517 3.61517C1.48759 5.24275 0.545457 7.43207 0.482497 9.73295C0.419537 12.0338 1.24053 14.2714 2.77667 15.9855C4.31281 17.6997 6.44733 18.7601 8.74133 18.9488C11.0353 19.1375 13.3144 18.4401 15.11 17L18.79 20.68C18.883 20.7738 18.9936 20.8482 19.1154 20.8989C19.2373 20.9497 19.368 20.9758 19.5 20.9758C19.632 20.9758 19.7627 20.9497 19.8846 20.8989C20.0065 20.8482 20.1171 20.7738 20.21 20.68C20.3903 20.4936 20.491 20.2444 20.491 19.985C20.491 19.7257 20.3903 19.4765 20.21 19.29ZM9.50003 17C8.11556 17 6.76218 16.5895 5.61103 15.8203C4.45989 15.0511 3.56268 13.9579 3.03287 12.6788C2.50306 11.3997 2.36443 9.99226 2.63453 8.63439C2.90463 7.27653 3.57131 6.02925 4.55028 5.05028C5.52925 4.07131 6.77653 3.40463 8.13439 3.13453C9.49226 2.86443 10.8997 3.00306 12.1788 3.53287C13.4579 4.06268 14.5511 4.95989 15.3203 6.11103C16.0895 7.26218 16.5 8.61556 16.5 10C16.5 11.8565 15.7625 13.637 14.4498 14.9498C13.137 16.2625 11.3565 17 9.50003 17Z" fill="#6B6B67"/>
</svg>
