<svg width="20" height="19" viewBox="0 0 20 19" fill="none" xmlns="http://www.w3.org/2000/svg">
<path d="M17.645 7.04337L4.81165 0.626703C4.30518 0.374628 3.7333 0.284888 3.17396 0.369717C2.61463 0.454546 2.09507 0.709817 1.68612 1.10073C1.27717 1.49163 0.998731 1.99916 0.888768 2.5541C0.778804 3.10904 0.842667 3.68439 1.07165 4.2017L3.27165 9.1242C3.32157 9.24322 3.34728 9.37098 3.34728 9.50004C3.34728 9.62909 3.32157 9.75686 3.27165 9.87587L1.07165 14.7984C0.885291 15.217 0.806509 15.6756 0.842462 16.1325C0.878415 16.5893 1.02796 17.0299 1.27752 17.4143C1.52707 17.7986 1.86871 18.1145 2.2714 18.3332C2.67409 18.552 3.12506 18.6666 3.58332 18.6667C4.01253 18.6624 4.43535 18.5622 4.82082 18.3734L17.6542 11.9567C18.1094 11.7277 18.492 11.3767 18.7594 10.9429C19.0267 10.5092 19.1683 10.0096 19.1683 9.50004C19.1683 8.99047 19.0267 8.49092 18.7594 8.05713C18.492 7.62334 18.1094 7.27237 17.6542 7.04337H17.645ZM16.8292 10.3159L3.99582 16.7325C3.8273 16.8134 3.63807 16.8409 3.4535 16.8112C3.26894 16.7815 3.09786 16.6962 2.9632 16.5665C2.82855 16.4368 2.73676 16.2691 2.70014 16.0858C2.66351 15.9024 2.68382 15.7123 2.75832 15.5409L4.94915 10.6184C4.97751 10.5526 5.002 10.4853 5.02248 10.4167H11.3383C11.5814 10.4167 11.8146 10.3201 11.9865 10.1482C12.1584 9.97631 12.255 9.74315 12.255 9.50004C12.255 9.25692 12.1584 9.02376 11.9865 8.85186C11.8146 8.67995 11.5814 8.58337 11.3383 8.58337H5.02248C5.002 8.51477 4.97751 8.44744 4.94915 8.3817L2.75832 3.4592C2.68382 3.28775 2.66351 3.09762 2.70014 2.91431C2.73676 2.73099 2.82855 2.56326 2.9632 2.43359C3.09786 2.30392 3.26894 2.21852 3.4535 2.18884C3.63807 2.15916 3.8273 2.18662 3.99582 2.26754L16.8292 8.6842C16.9793 8.76113 17.1053 8.878 17.1933 9.02194C17.2813 9.16589 17.3279 9.33133 17.3279 9.50004C17.3279 9.66875 17.2813 9.83418 17.1933 9.97813C17.1053 10.1221 16.9793 10.2389 16.8292 10.3159Z" fill="#6B6B67"/>
</svg>
